HIERARCHY
ROOT Hips
{
  OFFSET 49.328 94.0659 14.3002
  CHANNELS 6 Xposition Yposition Zposition Zrotation Xrotation Yrotation
  JOINT spine
  {
    OFFSET 0 7.80058 0.448573
    CHANNELS 3 Zrotation Xrotation Yrotation
    JOINT spine1
    {
      OFFSET 0 10.1364 0
      CHANNELS 3 Zrotation Xrotation Yrotation
      JOINT spine2
      {
        OFFSET 0 9.71251 0
        CHANNELS 3 Zrotation Xrotation Yrotation
        JOINT Neck
        {
          OFFSET 0 24.9361 1.18887
          CHANNELS 3 Zrotation Xrotation Yrotation
          JOINT Head
          {
            OFFSET 0 7.53384 0
            CHANNELS 3 Zrotation Xrotation Yrotation
            End Site
            {
              OFFSET 0 18.2361 -6.01402
            }
          }
        }
        JOINT RightShoulder
        {
          OFFSET -4.08965 10.4888 -0.569457
          CHANNELS 3 Zrotation Xrotation Yrotation
          JOINT RightArm
          {
            OFFSET 0 13.757 0
            CHANNELS 3 Zrotation Xrotation Yrotation
            JOINT RightArmRoll
            {
              OFFSET 0 6.94478 0
              CHANNELS 3 Zrotation Xrotation Yrotation
              JOINT RightForeArm
              {
                OFFSET 0 20.2277 0
                CHANNELS 3 Zrotation Xrotation Yrotation
                JOINT RightForeArmRoll
                {
                  OFFSET 0 7.79312 0
                  CHANNELS 3 Zrotation Xrotation Yrotation
                  JOINT RightHand
                  {
                    OFFSET 0 15.6391 0
                    CHANNELS 3 Zrotation Xrotation Yrotation
                    End Site
                    {
                      OFFSET 0 0 0
                    }
                  }
                }
              }
            }
          }
        }
        JOINT LeftShoulder
        {
          OFFSET 4.08965 10.4888 -0.569457
          CHANNELS 3 Zrotation Xrotation Yrotation
          JOINT LeftArm
          {
            OFFSET 0 13.757 0
            CHANNELS 3 Zrotation Xrotation Yrotation
            JOINT LeftArmRoll
            {
              OFFSET 0 6.94478 0
              CHANNELS 3 Zrotation Xrotation Yrotation
              JOINT LeftForeArm
              {
                OFFSET 0 20.2277 0
                CHANNELS 3 Zrotation Xrotation Yrotation
                JOINT LeftForeArmRoll
                {
                  OFFSET 0 7.79312 0
                  CHANNELS 3 Zrotation Xrotation Yrotation
                  JOINT LeftHand
                  {
                    OFFSET 0 15.6391 0
                    CHANNELS 3 Zrotation Xrotation Yrotation
                    End Site
                    {
                      OFFSET 0 0 0
                    }
                  }
                }
              }
            }
          }
        }
      }
    }
  }
  JOINT RightUpLeg
  {
    OFFSET -6.91415 -1.26788 -1.06358
    CHANNELS 3 Zrotation Xrotation Yrotation
    JOINT RightUpLegRoll
    {
      OFFSET 0 18.3378 0
      CHANNELS 3 Zrotation Xrotation Yrotation
      JOINT RightLeg
      {
        OFFSET 0 -22.7085 0
        CHANNELS 3 Zrotation Xrotation Yrotation
        JOINT RightLegRoll
        {
          OFFSET 0 22.7828 0
          CHANNELS 3 Zrotation Xrotation Yrotation
          JOINT RightFoot
          {
            OFFSET 0 18.9629 0
            CHANNELS 3 Zrotation Xrotation Yrotation
            JOINT RightToeBase
            {
              OFFSET 0 15.852 0
              CHANNELS 3 Zrotation Xrotation Yrotation
              End Site
              {
                OFFSET 0.00671906 7.677 -0.884893
              }
            }
          }
        }
      }
    }
  }
  JOINT LeftUpLeg
  {
    OFFSET 6.91415 -1.26788 -1.06358
    CHANNELS 3 Zrotation Xrotation Yrotation
    JOINT LeftUpLegRoll
    {
      OFFSET 0 18.3379 0
      CHANNELS 3 Zrotation Xrotation Yrotation
      JOINT LeftLeg
      {
        OFFSET 0 22.7084 0
        CHANNELS 3 Zrotation Xrotation Yrotation
        JOINT LeftLegRoll
        {
          OFFSET 0 22.9934 0
          CHANNELS 3 Zrotation Xrotation Yrotation
          JOINT LeftFoot
          {
            OFFSET 0 18.7522 0
            CHANNELS 3 Zrotation Xrotation Yrotation
            JOINT LeftToeBase
            {
              OFFSET 0 15.852 0
              CHANNELS 3 Zrotation Xrotation Yrotation
              End Site
              {
                OFFSET -0.030112 7.677 -0.884893
              }
            }
          }
        }
      }
    }
  }
}
MOTION
Frames: 10
Frame Time: 0.00208333
50.1215 94.1378 13.5892 -0.655958 -5.15468 -2.3202 -0.118956 -0.804997 0.302177 -0.225151 2.40329 0.624598 -0.232762 4.0483 0.628754 -3.71438 18.5596 0.235389 6.00633 -20.5389 0.76134 81.747 -3.98911 -4.05972 87.1452 8.07196 17.9621 -9.93171e-006 4.02209e-006 3.67078e-006 10.7722 11.1626 -2.01811 -9.69718e-007 5.55998e-007 -3.00131 8.02892 -4.95141 0.697671 -69.6824 2.31354 0.166007 -98.8045 -5.10163 -19.2973 5.76476e-015 1.59028e-015 3.18055e-015 -5.04475 13.7317 1.76197 -1.42715e-005 -2.76759e-008 3 -8.02957 -4.95141 -0.697664 178.689 -1.88421 -0.374572 180 7.0155e-015 178.935 179.048 9.90289 179.479 2.32201e-006 -2.56743e-006 0.127792 -18.5219 69.9298 21.1855 8.13649 25.2327 -3.48774 179.331 -1.7967 6.83644 4.54188e-006 -4.6773e-006 -1.455 -5.00796 -12.1202 -0.3229 1.73375e-006 -1.6257e-006 -0.25639 25.8799 72.2348 -24.2919 -8.13649 25.2327 3.48774 
50.1179 94.1421 13.5841 -0.657308 -5.15915 -2.32012 -0.118962 -0.803705 0.302471 -0.226329 2.40507 0.625359 -0.23396 4.05009 0.629544 -3.70111 18.5345 0.231709 5.98979 -20.504 0.75537 81.7485 -3.99036 -4.06026 87.1721 8.07432 17.9834 -9.93171e-006 4.02209e-006 3.67078e-006 10.748 11.2429 -2.02697 -9.69718e-007 5.55998e-007 -3.00131 8.02892 -4.95141 0.697671 -69.6639 2.3158 0.16234 -98.8439 -5.06581 -19.2586 -1.70955e-014 -5.56597e-015 9.54166e-015 -5.05168 13.7523 1.76414 -1.42715e-005 -2.76759e-008 3 -8.02957 -4.95141 -0.697664 178.689 -1.8993 -0.372344 180 7.0155e-015 178.935 179.046 9.88182 179.48 2.32201e-006 -2.56743e-006 0.127792 -18.5225 69.9197 21.1762 8.13649 25.2327 -3.48774 179.339 -1.80716 6.82564 4.54188e-006 -4.6773e-006 -1.45403 -5.01661 -12.104 -0.323307 1.73375e-006 -1.6257e-006 -0.255499 25.8502 72.2205 -24.2701 -8.13649 25.2327 3.48774 
50.1192 94.163 13.5644 -0.658641 -5.16342 -2.32027 -0.118972 -0.802351 0.30279 -0.227557 2.40695 0.626211 -0.235209 4.05196 0.630424 -3.68751 18.5075 0.227825 5.9729 -20.4677 0.749156 81.7496 -3.99166 -4.06079 87.1999 8.07642 18.0045 -9.93171e-006 4.02209e-006 3.67078e-006 10.7239 11.3231 -2.03587 -9.69718e-007 5.55998e-007 -3.00131 8.02892 -4.95141 0.697671 -69.644 2.31808 0.158472 -98.8847 -5.03014 -19.2203 1.19271e-015 -7.95139e-016 6.36111e-015 -5.05808 13.7725 1.76617 -1.42715e-005 -2.76759e-008 3 -8.02957 -4.95141 -0.697664 178.689 -1.91458 -0.37006 180 7.0155e-015 178.935 179.043 9.8598 179.481 2.32201e-006 -2.56743e-006 0.127792 -18.5231 69.909 21.1665 8.13649 25.2327 -3.48774 179.348 -1.81782 6.8142 4.54188e-006 -4.6773e-006 -1.45301 -5.02586 -12.0867 -0.323752 1.73375e-006 -1.6257e-006 -0.254556 25.8188 72.2053 -24.247 -8.13649 25.2327 3.48774 
50.1211 94.1496 13.5753 -0.659964 -5.16756 -2.32056 -0.118984 -0.800954 0.303127 -0.228821 2.40889 0.627125 -0.236494 4.05391 0.631367 -3.67367 18.4791 0.223798 5.95577 -20.4303 0.742772 81.7504 -3.993 -4.06132 87.2282 8.07833 18.0254 -9.93171e-006 4.02209e-006 3.67078e-006 10.7001 11.4033 -2.04479 -9.69718e-007 5.55998e-007 -3.00131 8.02892 -4.95141 0.697671 -69.6232 2.32038 0.154466 -98.9266 -4.99457 -19.1823 -2.18663e-015 -3.18055e-015 6.36111e-015 -5.0641 13.7926 1.76812 -1.42715e-005 -2.76759e-008 3 -8.02957 -4.95141 -0.697664 178.69 -1.92999 -0.367737 180 7.0155e-015 178.935 179.041 9.8371 179.483 2.32201e-006 -2.56743e-006 0.127792 -18.5237 69.898 21.1564 8.13649 25.2327 -3.48774 179.356 -1.82861 6.80232 4.54188e-006 -4.6773e-006 -1.45194 -5.03551 -12.0687 -0.324223 1.73375e-006 -1.6257e-006 -0.253576 25.7862 72.1896 -24.2232 -8.13649 25.2327 3.48774 
50.121 94.1618 13.5852 -0.661281 -5.17161 -2.32094 -0.118997 -0.799533 0.303474 -0.230105 2.41087 0.628074 -0.237801 4.05589 0.632347 -3.65971 18.4499 0.21969 5.93852 -20.3923 0.736293 81.751 -3.99435 -4.06184 87.2569 8.08015 18.0461 -9.93171e-006 4.02209e-006 3.67078e-006 10.6762 11.4834 -2.05374 -9.69718e-007 5.55998e-007 -3.00131 8.02892 -4.95141 0.697671 -69.6018 2.32269 0.150379 -98.9692 -4.95905 -19.1444 6.95746e-015 7.95139e-016 3.18055e-015 -5.06992 13.8124 1.77001 -1.42715e-005 -2.76759e-008 3 -8.02957 -4.95141 -0.697664 178.69 -1.94547 -0.365391 180 7.0155e-015 178.935 179.038 9.81405 179.484 2.32201e-006 -2.56743e-006 0.127792 -18.5243 69.8867 21.1462 8.13649 25.2327 -3.48774 179.365 -1.83947 6.79018 4.54188e-006 -4.6773e-006 -1.45085 -5.04541 -12.0504 -0.324709 1.73375e-006 -1.6257e-006 -0.252575 25.7531 72.1736 -24.1989 -8.13649 25.2327 3.48774 
50.1214 94.167 13.5819 -0.662596 -5.17565 -2.32134 -0.119011 -0.798105 0.303824 -0.231394 2.41286 0.629033 -0.239112 4.05787 0.633336 -3.64571 18.4206 0.215562 5.92123 -20.3541 0.729793 81.7516 -3.99572 -4.06235 87.2857 8.08193 18.0668 -9.93171e-006 4.02209e-006 3.67078e-006 10.6525 11.5635 -2.0627 -9.69718e-007 5.55998e-007 -3.00131 8.02892 -4.95141 0.697671 -69.5803 2.325 0.146272 -99.0119 -4.92353 -19.1066 -3.08116e-014 -8.74653e-015 9.54166e-015 -5.07568 13.8323 1.7719 -1.42715e-005 -2.76759e-008 3 -8.02957 -4.95141 -0.697664 178.69 -1.96098 -0.36304 180 7.0155e-015 178.935 179.035 9.79089 179.485 2.32201e-006 -2.56743e-006 0.127792 -18.5249 69.8754 21.1359 8.13649 25.2327 -3.48774 179.374 -1.85035 6.77798 4.54188e-006 -4.6773e-006 -1.44976 -5.05536 -12.0319 -0.325198 1.73375e-006 -1.6257e-006 -0.251569 25.7198 72.1575 -24.1745 -8.13649 25.2327 3.48774 
50.117 94.1641 13.5825 -0.663915 -5.17972 -2.3217 -0.119024 -0.79669 0.304169 -0.232673 2.41483 0.629974 -0.240414 4.05984 0.634306 -3.63179 18.3916 0.211478 5.90403 -20.3163 0.723346 81.7522 -3.99707 -4.06288 87.3143 8.08377 18.0876 -9.93171e-006 4.02209e-006 3.67078e-006 10.6287 11.6437 -2.07166 -9.69718e-007 5.55998e-007 -3.00131 8.02892 -4.95141 0.697671 -69.559 2.32731 0.142206 -99.0544 -4.88795 -19.0687 -1.39149e-015 -1.59028e-015 -0 -5.08156 13.8522 1.77381 -1.42715e-005 -2.76759e-008 3 -8.02957 -4.95141 -0.697664 178.691 -1.97644 -0.3607 180 7.0155e-015 178.935 179.032 9.76791 179.487 2.32201e-006 -2.56743e-006 0.127792 -18.5255 69.8642 21.1257 8.13649 25.2327 -3.48774 179.383 -1.8612 6.7659 4.54188e-006 -4.6773e-006 -1.44868 -5.0652 -12.0136 -0.325681 1.73375e-006 -1.6257e-006 -0.250574 25.6869 72.1416 -24.1504 -8.13649 25.2327 3.48774 
50.1188 94.1617 13.5868 -0.665241 -5.18389 -2.32195 -0.119036 -0.795305 0.304501 -0.233927 2.41675 0.63087 -0.241689 4.06177 0.635232 -3.61804 18.3636 0.207497 5.88701 -20.2791 0.717025 81.7531 -3.9984 -4.0634 87.3424 8.08573 18.1085 -9.93171e-006 4.02209e-006 3.67078e-006 10.6049 11.7239 -2.08061 -9.69718e-007 5.55998e-007 -3.00131 8.02892 -4.95141 0.697671 -69.5384 2.3296 0.138238 -99.0962 -4.85227 -19.0306 8.94531e-015 7.95139e-016 6.36111e-015 -5.0877 13.8722 1.77578 -1.42715e-005 -2.76759e-008 3 -8.02957 -4.95141 -0.697664 178.691 -1.99181 -0.358388 180 7.0155e-015 178.935 179.03 9.74541 179.488 2.32201e-006 -2.56743e-006 0.127792 -18.5262 69.8533 21.1157 8.13649 25.2327 -3.48774 179.391 -1.87195 6.75414 4.54188e-006 -4.6773e-006 -1.44762 -5.07474 -11.9959 -0.326144 1.73375e-006 -1.6257e-006 -0.249605 25.6548 72.126 -24.127 -8.13649 25.2327 3.48774 
50.1197 94.1619 13.5827 -0.66658 -5.18822 -2.32203 -0.119045 -0.79397 0.304813 -0.235141 2.4186 0.631694 -0.242923 4.06362 0.636085 -3.60456 18.3372 0.203682 5.87028 -20.2432 0.710905 81.7544 -3.99968 -4.06394 87.37 8.0879 18.1297 -9.93171e-006 4.02209e-006 3.67078e-006 10.581 11.8041 -2.08956 -9.69718e-007 5.55998e-007 -3.00131 8.02892 -4.95141 0.697671 -69.519 2.33188 0.134431 -99.1369 -4.81644 -18.9923 -6.55989e-015 -3.97569e-015 3.18055e-015 -5.09426 13.8926 1.77786 -1.42715e-005 -2.76759e-008 3 -8.02957 -4.95141 -0.697664 178.691 -2.00704 -0.35612 180 7.0155e-015 178.935 179.027 9.72368 179.489 2.32201e-006 -2.56743e-006 0.127792 -18.5268 69.8428 21.1062 8.13649 25.2327 -3.48774 179.399 -1.88255 6.7429 4.54188e-006 -4.6773e-006 -1.44662 -5.0838 -11.9789 -0.326577 1.73375e-006 -1.6257e-006 -0.248677 25.6242 72.1112 -24.1046 -8.13649 25.2327 3.48774 
50.1189 94.1719 13.5843 -0.667936 -5.19277 -2.32187 -0.11905 -0.792702 0.305096 -0.236299 2.42035 0.63242 -0.2441 4.06536 0.636838 -3.59145 18.3128 0.200094 5.85394 -20.2089 0.705059 81.7561 -4.00091 -4.06449 87.3965 8.09034 18.1511 -9.93171e-006 4.02209e-006 3.67078e-006 10.5569 11.8844 -2.09847 -9.69718e-007 5.55998e-007 -3.00131 8.02892 -4.95141 0.697671 -69.501 2.33414 0.130843 -99.1761 -4.7804 -18.9536 4.37326e-015 2.38542e-015 3.18055e-015 -5.10142 13.9134 1.78008 -1.42715e-005 -2.76759e-008 3 -8.02957 -4.95141 -0.697664 178.692 -2.02205 -0.353914 180 7.0155e-015 178.935 179.025 9.70302 179.49 2.32201e-006 -2.56743e-006 0.127792 -18.5274 69.8329 21.0973 8.13649 25.2327 -3.48774 179.407 -1.89295 6.73235 4.54188e-006 -4.6773e-006 -1.44568 -5.09222 -11.963 -0.32697 1.73375e-006 -1.6257e-006 -0.247808 25.5954 72.0972 -24.0836 -8.13649 25.2327 3.48774 
